<svg xmlns="http://www.w3.org/2000/svg" width="84.345" height="84.345" viewBox="1016.805 1004.083 21.086 21.086"><g data-name="vuesax/linear/bookmark-2"><g data-name="bookmark-2"><path d="M1029.457 1004.083c2.109 0 3.163 1.065 3.163 3.195v7.432c0 2.098-1.487 2.91-3.31 1.814l-1.392-.844c-.317-.19-.823-.19-1.139 0l-1.392.844c-1.824 1.096-3.31.284-3.31-1.814v-7.432c0-2.13 1.054-3.195 3.163-3.195h4.217Z" stroke-linejoin="round" stroke-linecap="round" stroke-width="1.5" stroke="#22ac66" fill="transparent" data-name="Vector"/><path d="M1021.887 1007.235c-3.595.601-5.082 2.815-5.082 7.286v3.194c0 5.324 2.109 7.454 7.38 7.454h6.326c5.272 0 7.38-2.13 7.38-7.454v-3.194c0-4.544-1.539-6.77-5.271-7.317" stroke-linejoin="round" stroke-linecap="round" stroke-width="1.5" stroke="#22ac66" fill="transparent" data-name="Vector"/></g></g></svg>