<svg xmlns="http://www.w3.org/2000/svg" width="84.345" height="78.737" viewBox="755.109 1004.836 21.086 19.684"><g data-name="vuesax/linear/book"><g data-name="book"><path d="M776.195 1019.678v-12.726c0-1.265-1.033-2.203-2.288-2.098h-.063c-2.214.19-5.578 1.318-7.454 2.499l-.18.116c-.305.19-.811.19-1.117 0l-.264-.158c-1.876-1.17-5.229-2.288-7.443-2.467-1.255-.106-2.277.843-2.277 2.098v12.736c0 1.012.822 1.96 1.834 2.087l.306.043c2.288.305 5.82 1.465 7.844 2.572l.042.021c.285.158.738.158 1.012 0 2.025-1.117 5.567-2.288 7.865-2.593l.348-.043c1.013-.126 1.835-1.075 1.835-2.087ZM765.652 1007.817v15.815M761.17 1010.98H758.8M761.962 1014.143h-3.163" stroke-linejoin="round" stroke-linecap="round" stroke-width="1.5" stroke="#22ac66" fill="transparent" data-name="Vector"/></g></g></svg>