<svg xmlns="http://www.w3.org/2000/svg" width="132.941" height="137.049" viewBox="57.254 487.442 33.235 34.262"><g data-name="vuesax/linear/folder-open"><g data-name="folder-open"><path d="m90.46 508.493-.687 8.579c-.257 2.625-.463 4.632-5.112 4.632H63.077c-4.649 0-4.855-2.007-5.112-4.632l-.687-8.579a5.2 5.2 0 0 1 1.116-3.757l.034-.034a5.104 5.104 0 0 1 3.963-1.87h22.956c1.596 0 3.002.72 3.929 1.835.017.017.034.035.034.052a5.019 5.019 0 0 1 1.15 3.774Z" stroke-linejoin="round" stroke-linecap="round" stroke-width="1.5" stroke="#292d32" fill="transparent" data-name="Vector"/><path d="M59.286 503.57v-8.837c0-5.833 1.458-7.291 7.291-7.291h2.18c2.178 0 2.676.652 3.5 1.75l2.178 2.916c.55.721.875 1.167 2.334 1.167h4.375c5.833 0 7.291 1.458 7.291 7.292v3.07M69.46 513.126h8.818" stroke-linejoin="round" stroke-linecap="round" stroke-width="1.5" stroke="#292d32" fill="transparent" data-name="Vector"/></g></g></svg>