<svg xmlns="http://www.w3.org/2000/svg" width="218.813" height="219.531" viewBox="6.846 20.539 54.703 54.883"><g data-name="Group"><path d="M61.55 36.937V50.63c0 .89-.035 1.745-.137 2.567-.788 9.243-6.23 13.83-16.26 13.83h-1.37c-.856 0-1.677.41-2.19 1.095L37.483 73.6c-1.814 2.43-4.758 2.43-6.572 0l-4.108-5.477c-.445-.582-1.438-1.095-2.191-1.095h-1.37c-10.92 0-16.397-2.705-16.397-16.397V36.937c0-10.03 4.622-15.473 13.83-16.26a20.762 20.762 0 0 1 2.568-.138h21.908c10.92 0 16.398 5.478 16.398 16.398Z" stroke-linejoin="round" stroke-linecap="round" stroke-width="3" stroke="#fff" fill="transparent" data-name="Vector"/></g></svg>