<svg xmlns="http://www.w3.org/2000/svg" width="147.614" height="148.002" viewBox="55.94 407.864 36.904 37"><g data-name="vuesax/linear/messages"><g data-name="messages"><g data-name="Group"><path d="M85.455 424.1v7.387c0 .48-.018.942-.074 1.385-.424 4.987-3.361 7.462-8.773 7.462h-.739c-.462 0-.905.222-1.182.591l-2.216 2.956c-.98 1.311-2.568 1.311-3.547 0l-2.216-2.956c-.24-.314-.776-.59-1.182-.59h-.739c-5.892 0-8.847-1.46-8.847-8.848V424.1c0-5.412 2.493-8.348 7.462-8.773.443-.056.905-.074 1.385-.074h11.821c5.892 0 8.847 2.955 8.847 8.847Z" stroke-linejoin="round" stroke-linecap="round" stroke-width="1.5" stroke="#292d32" fill="transparent" data-name="Vector"/></g><path d="M92.843 416.711v7.388c0 5.43-2.493 8.349-7.462 8.773.056-.443.074-.905.074-1.385V424.1c0-5.892-2.955-8.847-8.847-8.847h-11.82c-.481 0-.943.018-1.386.074.425-4.969 3.361-7.462 8.773-7.462h11.821c5.892 0 8.847 2.955 8.847 8.847Z" stroke-linejoin="round" stroke-linecap="round" stroke-width="1.5" stroke="#292d32" fill="transparent" data-name="Vector"/><path d="M77.172 428.643h.017M70.708 428.643h.016M64.243 428.643h.017" stroke-linejoin="round" stroke-linecap="round" stroke-width="2" stroke="#292d32" fill="transparent" data-name="Vector"/></g></g></svg>