<svg xmlns="http://www.w3.org/2000/svg" width="127.429" height="143.156" viewBox="55.49 251.078 31.857 35.789"><g data-name="Group 197"><path d="M55.49 255.02v27.906c0 2.173 2.23 3.941 4.97 3.941h21.918c2.74 0 4.97-1.628 4.97-3.628V257.99c0-1.132-.708-2.176-1.915-2.86v-.11c0-2.174-2.229-3.942-4.969-3.942H60.46c-2.74 0-4.97 1.768-4.97 3.942Zm1.59 0c0-1.448 1.516-2.626 3.38-2.626h20.004c1.864 0 3.38 1.178 3.38 2.626v.476c0 .238.156.459.41.575.941.433 1.504 1.15 1.504 1.92v25.248c0 1.275-1.516 2.312-3.38 2.312H60.46c-1.864 0-3.38-1.177-3.38-2.625V255.02Z" fill="#424143" fill-rule="evenodd" data-name="Path 285"/><path d="M60.943 258.212a.794.794 0 0 0 .506.182h3.902v13.295a.795.795 0 0 0 1.343.574l3.29-3.14 3.454 3.153a.796.796 0 0 0 1.33-.587v-13.295h7.729c.317 0 .605-.19.73-.482.063-.146.594-1.46-.025-2.638-.265-.504-.846-1.157-2.115-1.411a.782.782 0 0 0-.155-.016H61.449a.866.866 0 0 0-.139.012c-.164.03-1.611.318-1.917 1.482-.345 1.31 1.081 2.485 1.55 2.871Zm.587-2.776h19.319c.481.108.799.301.944.573.128.239.132.54.097.796h-7.916a.794.794 0 0 0-.795.794v12.288l-2.671-2.438a.793.793 0 0 0-1.084.012l-2.484 2.37V257.6a.795.795 0 0 0-.794-.794H61.74c-.827-.732-.812-1.058-.812-1.06.033-.087.322-.243.601-.309Z" fill="#424143" fill-rule="evenodd" data-name="Path 286"/></g></svg>