<svg xmlns="http://www.w3.org/2000/svg" width="143.376" height="148.511" viewBox="56.811 328.947 35.844 37.128"><g data-name="vuesax/twotone/profile-2user"><g data-name="profile-2user"><path d="M69.583 345.57a3.407 3.407 0 0 0-.618 0c-4.46-.15-8.003-3.804-8.003-8.302a8.315 8.315 0 0 1 8.321-8.321c4.592 0 8.322 3.73 8.322 8.321-.019 4.498-3.561 8.153-8.022 8.303Z" stroke-linejoin="round" stroke-linecap="round" stroke-width="1.5" stroke="#292d32" fill="transparent" data-name="Vector"/><path d="M83.171 332.695a6.555 6.555 0 0 1 6.56 6.56 6.569 6.569 0 0 1-6.316 6.56 2.117 2.117 0 0 0-.488 0" stroke-linejoin="round" stroke-linecap="round" stroke-width="1.5" stroke="#404143" fill="transparent" data-name="Vector"/><path d="M60.212 352.486c-4.535 3.037-4.535 7.984 0 11.002 5.154 3.448 13.607 3.448 18.76 0 4.536-3.036 4.536-7.984 0-11.002-5.134-3.43-13.587-3.43-18.76 0Z" stroke-linejoin="round" stroke-linecap="round" stroke-width="1.5" stroke="#292d32" fill="transparent" data-name="Vector"/><path d="M86.788 362.682c1.35-.281 2.624-.825 3.674-1.63 2.923-2.193 2.923-5.81 0-8.003-1.031-.787-2.287-1.312-3.618-1.612" stroke-linejoin="round" stroke-linecap="round" stroke-width="1.5" stroke="#404143" fill="transparent" data-name="Vector"/></g></g></svg>